<svg xmlns="http://www.w3.org/2000/svg" viewBox="0 0 64 64">
  <defs>
    <linearGradient id="a" x1="11" y1="8" x2="53" y2="58" gradientUnits="userSpaceOnUse">
      <stop stop-color="#bae6fd"/>
      <stop offset="0.52" stop-color="#38bdf8"/>
      <stop offset="1" stop-color="#fb7185"/>
    </linearGradient>
    <linearGradient id="b" x1="20" y1="14" x2="45" y2="45" gradientUnits="userSpaceOnUse">
      <stop stop-color="#fff" stop-opacity="0.62"/>
      <stop offset="1" stop-color="#fff" stop-opacity="0"/>
    </linearGradient>
  </defs>
  <rect width="64" height="64" rx="16" fill="#09090b"/>
  <path fill="url(#a)" d="M17.5 10h29C51.2 10 55 13.8 55 18.5v27C55 50.2 51.2 54 46.5 54h-29C12.8 54 9 50.2 9 45.5v-27C9 13.8 12.8 10 17.5 10Z"/>
  <path fill="#09090b" d="M26 20.5 43.5 32 26 43.5v-23Z" opacity="0.96"/>
  <path fill="#09090b" d="M18.5 20.5h6.1l7.2 13.2 7.1-13.2h6L34.8 38v7.5h-6V38L18.5 20.5Z" opacity="0.96"/>
  <path stroke="#09090b" stroke-linecap="round" stroke-width="3.2" d="M17.5 45.5c4.7-4 9.8-4 15.3 0 5.3 3.8 10.1 3.8 14.5 0" opacity="0.42"/>
  <path fill="url(#b)" d="M18.5 13h15.8c-9.8 4.7-16 11.4-18.9 20.1V16.2c0-1.8 1.4-3.2 3.1-3.2Z"/>
</svg>
